<svg width="391" height="448" viewBox="0 0 391 448" fill="none" xmlns="http://www.w3.org/2000/svg">
<rect x="0.5" y="0.5" width="390" height="447" rx="4.5" stroke="#8A38F5" stroke-dasharray="10 5"/>
<g filter="url(#filter0_d_377_8970)">
<rect x="20" y="20" width="335" height="57" rx="28.5" fill="white"/>
<rect x="24" y="24" width="112" height="49" rx="24.5" fill="#191F28"/>
<path d="M59.5 55.1519V47.0566C59.5 46.9088 59.4661 46.763 59.401 46.6307C59.3359 46.4985 59.2414 46.3834 59.125 46.2947L52.5625 41.2947C52.4002 41.1711 52.2028 41.1042 52 41.1042C51.7972 41.1042 51.5998 41.1711 51.4375 41.2947L44.875 46.2947C44.7586 46.3834 44.6641 46.4985 44.599 46.6307C44.5339 46.763 44.5 46.9088 44.5 47.0566V55.1519C44.5 55.4045 44.5988 55.6467 44.7746 55.8253C44.9504 56.0039 45.1889 56.1042 45.4375 56.1042H49.1875C49.4361 56.1042 49.6746 56.0039 49.8504 55.8253C50.0262 55.6467 50.125 55.4045 50.125 55.1519V51.4614C50.125 51.2088 50.2238 50.9666 50.3996 50.788C50.5754 50.6094 50.8139 50.509 51.0625 50.509H52.9375C53.1861 50.509 53.4246 50.6094 53.6004 50.788C53.7762 50.9666 53.875 51.2088 53.875 51.4614V55.1519C53.875 55.4045 53.9738 55.6467 54.1496 55.8253C54.3254 56.0039 54.5639 56.1042 54.8125 56.1042H58.5625C58.8111 56.1042 59.0496 56.0039 59.2254 55.8253C59.4012 55.6467 59.5 55.4045 59.5 55.1519Z" fill="white"/>
<path d="M83.2423 54.0049H74.7726V50.4707H83.2423V54.0049ZM76.0578 53.0137H81.9709V51.4619H76.0578V53.0137ZM83.9738 43.8809H73.9933V42.8896H83.9738V43.8809ZM79.0177 44.3184C80.3211 44.3229 81.3146 44.471 81.9982 44.7627C82.6864 45.0498 83.0304 45.4805 83.0304 46.0547C83.0304 46.6243 82.6864 47.0573 81.9982 47.3535C81.3146 47.6497 80.3211 47.7979 79.0177 47.7979C77.7235 47.7979 76.7277 47.6497 76.0304 47.3535C75.3332 47.0573 74.9845 46.6243 74.9845 46.0547C74.9845 45.485 75.3332 45.0544 76.0304 44.7627C76.7277 44.471 77.7235 44.3229 79.0177 44.3184ZM79.0177 45.207C78.4298 45.207 77.9399 45.2412 77.548 45.3096C77.1606 45.3734 76.8667 45.4668 76.6662 45.5898C76.4702 45.7129 76.3722 45.8678 76.3722 46.0547C76.3722 46.2324 76.4725 46.3851 76.673 46.5127C76.8781 46.6403 77.1766 46.7383 77.5685 46.8066C77.9604 46.8704 78.4435 46.9023 79.0177 46.9023C79.592 46.9023 80.075 46.8704 80.467 46.8066C80.8589 46.7383 81.1551 46.6403 81.3556 46.5127C81.5561 46.3851 81.6564 46.2324 81.6564 46.0547C81.6564 45.8678 81.5561 45.7129 81.3556 45.5898C81.1551 45.4668 80.8612 45.3734 80.4738 45.3096C80.091 45.2412 79.6056 45.207 79.0177 45.207ZM79.6603 43.5664H78.3683V41.7549H79.6603V43.5664ZM84.6027 49.6436H73.4328V48.6113H84.6027V49.6436ZM79.6603 49.1855H78.3683V47.4629H79.6603V49.1855ZM92.2395 51.1885H90.9339V49.1855H92.2395V51.1885ZM97.4348 54.1553H96.1292V41.9053H97.4348V54.1553ZM99.2737 48.1328H97.0179V47.0527H99.2737V48.1328ZM87.68 50.8262C89.2112 50.8262 90.6057 50.8057 91.8636 50.7646C93.1214 50.7191 94.3108 50.6143 95.4319 50.4502L95.5139 51.4209C94.6982 51.5622 93.8483 51.6693 92.9641 51.7422C92.08 51.8105 91.2438 51.8561 90.4554 51.8789C89.6669 51.9017 88.8079 51.9131 87.8782 51.9131L87.68 50.8262ZM95.2542 44.4004H87.9055V43.3613H95.2542V44.4004ZM91.597 45.043C92.1712 45.043 92.6793 45.1387 93.1214 45.3301C93.5634 45.5169 93.9098 45.7812 94.1604 46.123C94.4156 46.4648 94.5432 46.8659 94.5432 47.3262C94.5432 47.7728 94.4156 48.167 94.1604 48.5088C93.9098 48.846 93.5634 49.1104 93.1214 49.3018C92.6793 49.4932 92.1712 49.5889 91.597 49.5889C91.0227 49.5889 90.5123 49.4932 90.0657 49.3018C89.6191 49.1104 89.2727 48.846 89.0266 48.5088C88.7851 48.167 88.6643 47.7728 88.6643 47.3262C88.6643 46.8659 88.7851 46.4648 89.0266 46.123C89.2727 45.7812 89.6191 45.5169 90.0657 45.3301C90.5123 45.1387 91.0227 45.043 91.597 45.043ZM91.597 46.0342C91.2597 46.0342 90.9612 46.0889 90.7014 46.1982C90.4462 46.3031 90.2457 46.4535 90.0999 46.6494C89.9541 46.8408 89.8811 47.0664 89.8811 47.3262C89.8811 47.5768 89.9518 47.8001 90.093 47.9961C90.2343 48.1875 90.4348 48.3333 90.6946 48.4336C90.9589 48.5293 91.2597 48.5771 91.597 48.5771C91.9342 48.5771 92.2304 48.5293 92.4856 48.4336C92.7454 48.3333 92.9459 48.1875 93.0872 47.9961C93.2285 47.8001 93.2991 47.5768 93.2991 47.3262C93.2991 47.0664 93.2285 46.8408 93.0872 46.6494C92.9459 46.4535 92.7454 46.3031 92.4856 46.1982C92.2304 46.0889 91.9342 46.0342 91.597 46.0342ZM92.2395 44.0723H90.9339V41.9463H92.2395V44.0723ZM108.66 45.0635H105.31V43.9902H108.66V45.0635ZM108.701 47.6816H105.31V46.6289H108.701V47.6816ZM105.618 48.7549H99.9237V42.958H105.618V48.7549ZM101.216 47.7295H104.34V44.0107H101.216V47.7295ZM109.583 50.8535H108.284V41.9189H109.583V50.8535ZM109.856 53.916H101.578V52.8428H109.856V53.916ZM102.89 53.3486H101.578V50.04H102.89V53.3486Z" fill="white"/>
<path d="M170.875 56.5004L166.825 52.4504M166.825 52.4504C167.475 51.8003 167.991 51.0286 168.343 50.1793C168.695 49.33 168.876 48.4197 168.876 47.5004C168.876 46.5811 168.695 45.6708 168.343 44.8214C167.991 43.9721 167.475 43.2004 166.825 42.5504C166.175 41.9003 165.404 41.3847 164.554 41.0329C163.705 40.6811 162.795 40.5 161.875 40.5C160.956 40.5 160.046 40.6811 159.196 41.0329C158.347 41.3847 157.575 41.9003 156.925 42.5504C155.613 43.8632 154.875 45.6437 154.875 47.5004C154.875 49.357 155.613 51.1375 156.925 52.4504C158.238 53.7632 160.019 54.5007 161.875 54.5007C163.732 54.5007 165.513 53.7632 166.825 52.4504Z" stroke="#6B7684" stroke-width="1.5" stroke-linecap="round" stroke-linejoin="round"/>
<path d="M223.675 56.5H225.625C226.176 56.5007 226.647 56.2928 227.038 55.8763C227.429 55.4598 227.625 54.9594 227.625 54.375V53.3125C227.625 52.7983 227.467 52.3244 227.15 51.8909C226.833 51.4574 226.375 51.0636 225.775 50.7094C225.125 50.3382 224.425 50.0241 223.675 49.7669M219.625 48C220.725 48 221.667 47.5839 222.45 46.7516C223.233 45.9193 223.625 44.9188 223.625 43.75C223.625 42.5813 223.233 41.5808 222.45 40.7485C221.667 39.9162 220.725 39.5 219.625 39.5C219.392 39.4993 219.158 39.5124 218.925 39.5393C218.692 39.5663 218.458 39.624 218.225 39.7125M205.625 53.525C205.625 52.9229 205.771 52.3697 206.063 51.8654C206.355 51.361 206.742 50.9757 207.225 50.7094C208.258 50.1604 209.308 49.7489 210.375 49.4748C211.442 49.2006 212.525 49.0632 213.625 49.0625C214.725 49.0618 215.808 49.1992 216.875 49.4748C217.942 49.7503 218.992 50.1618 220.025 50.7094C220.508 50.975 220.896 51.3603 221.188 51.8654C221.48 52.3704 221.626 52.9236 221.625 53.525V54.375C221.625 54.9594 221.429 55.4598 221.038 55.8763C220.647 56.2928 220.176 56.5007 219.625 56.5H207.625C207.075 56.5 206.604 56.2921 206.213 55.8763C205.822 55.4605 205.626 54.9601 205.625 54.375V53.525ZM213.625 48C212.525 48 211.583 47.5839 210.8 46.7516C210.017 45.9193 209.625 44.9188 209.625 43.75C209.625 42.5813 210.017 41.5808 210.8 40.7485C211.583 39.9162 212.525 39.5 213.625 39.5C214.725 39.5 215.667 39.9162 216.45 40.7485C217.233 41.5808 217.625 42.5813 217.625 43.75C217.625 44.9188 217.233 45.9193 216.45 46.7516C215.667 47.5839 214.725 48 213.625 48Z" stroke="#6B7684" stroke-width="1.5" stroke-linecap="round"/>
<path d="M278.837 43.6453H274.99C274.99 42.3086 274.504 39.9214 273.639 38.9762C272.773 38.031 271.599 37.5 270.375 37.5C269.151 37.5 267.977 38.031 267.111 38.9762C266.246 39.9214 265.76 42.3086 265.76 43.6453H261.913C261.505 43.6453 261.114 43.8223 260.826 44.1373C260.537 44.4524 260.375 44.8797 260.375 45.3253V56.82C260.375 57.2656 260.537 57.6929 260.826 58.0079C261.114 58.323 261.505 58.5 261.913 58.5H278.837C279.245 58.5 279.636 58.323 279.924 58.0079C280.213 57.6929 280.375 57.2656 280.375 56.82V45.3253C280.375 44.8797 280.213 44.4524 279.924 44.1373C279.636 43.8223 279.245 43.6453 278.837 43.6453ZM270.375 39.18C271.191 39.18 271.974 39.534 272.551 40.1641C273.128 40.7942 273.452 42.7541 273.452 43.6453H267.298C267.298 42.7541 267.622 40.7942 268.199 40.1641C268.776 39.534 269.559 39.18 270.375 39.18ZM278.837 56.82H261.913V45.3253H265.76V48.1253C265.76 48.348 265.841 48.5617 265.985 48.7192C266.129 48.8768 266.325 48.9653 266.529 48.9653C266.733 48.9653 266.929 48.8768 267.073 48.7192C267.217 48.5617 267.298 48.348 267.298 48.1253V45.3253H273.452V48.1253C273.452 48.348 273.533 48.5617 273.677 48.7192C273.821 48.8768 274.017 48.9653 274.221 48.9653C274.425 48.9653 274.621 48.8768 274.765 48.7192C274.909 48.5617 274.99 48.348 274.99 48.1253V45.3253H278.837V56.82Z" fill="#6B7684"/>
<path d="M320.125 45.5001H328.125M320.125 48.5001H328.125M320.125 51.5001H324.125M333.125 48.5001C333.125 50.1113 332.693 51.693 331.873 53.08C331.054 54.4671 329.877 55.6088 328.465 56.3857C327.054 57.1627 325.46 57.5466 323.849 57.4972C322.239 57.4478 320.671 56.9671 319.31 56.1051L315.125 57.5001L316.52 53.3151C315.774 52.1356 315.312 50.7987 315.171 49.4099C315.03 48.0212 315.214 46.6188 315.709 45.3135C316.203 44.0082 316.995 42.8358 318.02 41.889C319.046 40.9423 320.278 40.247 321.618 39.8583C322.959 39.4695 324.372 39.3979 325.745 39.6492C327.118 39.9004 328.414 40.4675 329.53 41.3058C330.646 42.144 331.552 43.2304 332.176 44.479C332.8 45.7276 333.125 47.1043 333.125 48.5001Z" stroke="#6B7684" stroke-width="1.5" stroke-linecap="round" stroke-linejoin="round"/>
</g>
<g filter="url(#filter1_d_377_8970)">
<rect x="20" y="106" width="335" height="57" rx="28.5" fill="white"/>
<path d="M50.875 126.375C50.9532 126.375 51.0308 126.401 51.0957 126.45L58.9707 132.45C59.0173 132.486 59.0558 132.533 59.083 132.588C59.1102 132.643 59.125 132.705 59.125 132.768V142.482C59.1249 142.59 59.0823 142.691 59.0107 142.764C58.9395 142.836 58.8456 142.875 58.75 142.875H54.25C54.1544 142.875 54.0605 142.836 53.9893 142.764C53.9177 142.691 53.8751 142.59 53.875 142.482V138.054C53.875 137.556 53.6802 137.076 53.3301 136.72C52.9794 136.363 52.5011 136.161 52 136.161H49.75C49.2489 136.161 48.7706 136.363 48.4199 136.72C48.0698 137.076 47.875 137.556 47.875 138.054V142.482C47.8749 142.59 47.8323 142.691 47.7607 142.764C47.6895 142.836 47.5956 142.875 47.5 142.875H43C42.9044 142.875 42.8105 142.836 42.7393 142.764C42.6677 142.691 42.6251 142.59 42.625 142.482V132.768C42.625 132.705 42.6398 132.643 42.667 132.588C42.6942 132.533 42.7327 132.486 42.7793 132.45L50.6543 126.45C50.7192 126.401 50.7968 126.375 50.875 126.375Z" stroke="#6B7684" stroke-width="1.5" stroke-linecap="round" stroke-linejoin="round"/>
<rect x="77.75" y="110" width="112" height="49" rx="24.5" fill="#191F28"/>
<path d="M112.417 141.167L109.042 137.792M109.042 137.792C109.584 137.25 110.014 136.607 110.307 135.899C110.6 135.192 110.751 134.433 110.751 133.667C110.751 132.901 110.6 132.142 110.307 131.434C110.014 130.727 109.584 130.084 109.042 129.542C108.5 129 107.857 128.57 107.15 128.277C106.442 127.984 105.683 127.833 104.917 127.833C104.151 127.833 103.392 127.984 102.685 128.277C101.977 128.57 101.334 129 100.792 129.542C99.6981 130.636 99.0835 132.12 99.0835 133.667C99.0835 135.214 99.6981 136.698 100.792 137.792C101.886 138.886 103.37 139.501 104.917 139.501C106.464 139.501 107.948 138.886 109.042 137.792Z" stroke="white" stroke-width="1.25" stroke-linecap="round" stroke-linejoin="round"/>
<circle cx="104.917" cy="133.667" r="4.16667" fill="white"/>
<path d="M124.332 133.518C125.667 133.522 126.725 133.502 127.504 133.456C128.283 133.41 129.056 133.315 129.821 133.169L129.965 134.215C129.172 134.352 128.375 134.443 127.572 134.488C126.77 134.534 125.69 134.552 124.332 134.543H123.382V133.518H124.332ZM129.069 129.71H124.674V133.996H123.382V128.644H129.069V129.71ZM128.83 132.103H124.25V131.05H128.83V132.103ZM132.467 140.005H124.64V135.705H132.467V140.005ZM125.918 138.952H131.182V136.737H125.918V138.952ZM132.467 135.11H131.175V127.905H132.467V135.11ZM134.251 131.986H132.105V130.893H134.251V131.986ZM137.902 130.216C137.902 130.868 137.79 131.503 137.567 132.123C137.344 132.743 137.016 133.299 136.583 133.791C136.154 134.279 135.637 134.652 135.031 134.912L134.334 133.914C134.867 133.682 135.325 133.365 135.708 132.964C136.091 132.558 136.38 132.118 136.576 131.645C136.776 131.166 136.877 130.69 136.877 130.216V128.65H137.902V130.216ZM138.121 130.216C138.121 130.676 138.214 131.13 138.401 131.576C138.592 132.018 138.87 132.417 139.235 132.772C139.6 133.123 140.042 133.401 140.561 133.606L139.864 134.604C139.276 134.363 138.775 134.019 138.36 133.572C137.945 133.126 137.631 132.615 137.417 132.041C137.207 131.462 137.102 130.854 137.102 130.216V128.65H138.121V130.216ZM144.827 135.329H143.59V127.919H144.827V135.329ZM143.966 132.123H141.737V131.043H143.966V132.123ZM142.168 135.261H140.958V128.131H142.168V135.261ZM144.827 140.155H143.549V137.018H136.501V135.958H144.827V140.155ZM155.464 140.155H154.179V127.905H155.464V140.155ZM157.44 133.948H155.17V132.875H157.44V133.948ZM153.113 130.886H145.853V129.826H153.113V130.886ZM149.537 131.795C150.121 131.795 150.643 131.916 151.103 132.157C151.568 132.399 151.93 132.736 152.19 133.169C152.454 133.602 152.586 134.092 152.586 134.639C152.586 135.19 152.454 135.682 152.19 136.115C151.93 136.548 151.568 136.885 151.103 137.127C150.643 137.368 150.121 137.489 149.537 137.489C148.949 137.489 148.425 137.368 147.965 137.127C147.505 136.885 147.143 136.548 146.878 136.115C146.618 135.682 146.489 135.19 146.489 134.639C146.489 134.092 146.618 133.602 146.878 133.169C147.143 132.736 147.505 132.399 147.965 132.157C148.425 131.916 148.949 131.795 149.537 131.795ZM149.537 132.868C149.191 132.868 148.881 132.943 148.608 133.094C148.334 133.24 148.118 133.447 147.958 133.716C147.803 133.985 147.726 134.292 147.726 134.639C147.726 134.99 147.803 135.297 147.958 135.562C148.118 135.826 148.334 136.033 148.608 136.184C148.881 136.329 149.191 136.402 149.537 136.402C149.884 136.402 150.194 136.329 150.467 136.184C150.741 136.033 150.955 135.826 151.11 135.562C151.265 135.297 151.342 134.99 151.342 134.639C151.342 134.292 151.265 133.985 151.11 133.716C150.955 133.447 150.741 133.24 150.467 133.094C150.194 132.943 149.884 132.868 149.537 132.868ZM150.173 130.277H148.881V128.069H150.173V130.277ZM167.646 140.155H166.334V127.905H167.646V140.155ZM164.01 129.225C164.01 130.473 163.816 131.629 163.429 132.69C163.046 133.748 162.431 134.723 161.583 135.616C160.735 136.505 159.632 137.275 158.274 137.927L157.577 136.874C158.757 136.318 159.726 135.671 160.482 134.933C161.243 134.194 161.806 133.369 162.171 132.458C162.535 131.547 162.718 130.539 162.718 129.437V129.225H164.01ZM163.278 130.264H158.172V129.225H163.278V130.264Z" fill="white"/>
<path d="M223.675 142.5H225.625C226.176 142.501 226.647 142.293 227.038 141.876C227.429 141.46 227.625 140.959 227.625 140.375V139.313C227.625 138.798 227.467 138.324 227.15 137.891C226.833 137.457 226.375 137.064 225.775 136.709C225.125 136.338 224.425 136.024 223.675 135.767M219.625 134C220.725 134 221.667 133.584 222.45 132.752C223.233 131.919 223.625 130.919 223.625 129.75C223.625 128.581 223.233 127.581 222.45 126.748C221.667 125.916 220.725 125.5 219.625 125.5C219.392 125.499 219.158 125.512 218.925 125.539C218.692 125.566 218.458 125.624 218.225 125.713M205.625 139.525C205.625 138.923 205.771 138.37 206.063 137.865C206.355 137.361 206.742 136.976 207.225 136.709C208.258 136.16 209.308 135.749 210.375 135.475C211.442 135.201 212.525 135.063 213.625 135.063C214.725 135.062 215.808 135.199 216.875 135.475C217.942 135.75 218.992 136.162 220.025 136.709C220.508 136.975 220.896 137.36 221.188 137.865C221.48 138.37 221.626 138.924 221.625 139.525V140.375C221.625 140.959 221.429 141.46 221.038 141.876C220.647 142.293 220.176 142.501 219.625 142.5H207.625C207.075 142.5 206.604 142.292 206.213 141.876C205.822 141.461 205.626 140.96 205.625 140.375V139.525ZM213.625 134C212.525 134 211.583 133.584 210.8 132.752C210.017 131.919 209.625 130.919 209.625 129.75C209.625 128.581 210.017 127.581 210.8 126.748C211.583 125.916 212.525 125.5 213.625 125.5C214.725 125.5 215.667 125.916 216.45 126.748C217.233 127.581 217.625 128.581 217.625 129.75C217.625 130.919 217.233 131.919 216.45 132.752C215.667 133.584 214.725 134 213.625 134Z" stroke="#6B7684" stroke-width="1.5" stroke-linecap="round"/>
<path d="M278.837 129.645H274.99C274.99 128.309 274.504 125.921 273.639 124.976C272.773 124.031 271.599 123.5 270.375 123.5C269.151 123.5 267.977 124.031 267.111 124.976C266.246 125.921 265.76 128.309 265.76 129.645H261.913C261.505 129.645 261.114 129.822 260.826 130.137C260.537 130.452 260.375 130.88 260.375 131.325V142.82C260.375 143.266 260.537 143.693 260.826 144.008C261.114 144.323 261.505 144.5 261.913 144.5H278.837C279.245 144.5 279.636 144.323 279.924 144.008C280.213 143.693 280.375 143.266 280.375 142.82V131.325C280.375 130.88 280.213 130.452 279.924 130.137C279.636 129.822 279.245 129.645 278.837 129.645ZM270.375 125.18C271.191 125.18 271.974 125.534 272.551 126.164C273.128 126.794 273.452 128.754 273.452 129.645H267.298C267.298 128.754 267.622 126.794 268.199 126.164C268.776 125.534 269.559 125.18 270.375 125.18ZM278.837 142.82H261.913V131.325H265.76V134.125C265.76 134.348 265.841 134.562 265.985 134.719C266.129 134.877 266.325 134.965 266.529 134.965C266.733 134.965 266.929 134.877 267.073 134.719C267.217 134.562 267.298 134.348 267.298 134.125V131.325H273.452V134.125C273.452 134.348 273.533 134.562 273.677 134.719C273.821 134.877 274.017 134.965 274.221 134.965C274.425 134.965 274.621 134.877 274.765 134.719C274.909 134.562 274.99 134.348 274.99 134.125V131.325H278.837V142.82Z" fill="#6B7684"/>
<path d="M320.125 131.5H328.125M320.125 134.5H328.125M320.125 137.5H324.125M333.125 134.5C333.125 136.111 332.693 137.693 331.873 139.08C331.054 140.467 329.877 141.609 328.465 142.386C327.054 143.163 325.46 143.547 323.849 143.497C322.239 143.448 320.671 142.967 319.31 142.105L315.125 143.5L316.52 139.315C315.774 138.136 315.312 136.799 315.171 135.41C315.03 134.021 315.214 132.619 315.709 131.313C316.203 130.008 316.995 128.836 318.02 127.889C319.046 126.942 320.278 126.247 321.618 125.858C322.959 125.47 324.372 125.398 325.745 125.649C327.118 125.9 328.414 126.468 329.53 127.306C330.646 128.144 331.552 129.23 332.176 130.479C332.8 131.728 333.125 133.104 333.125 134.5Z" stroke="#6B7684" stroke-width="1.5" stroke-linecap="round" stroke-linejoin="round"/>
</g>
<g filter="url(#filter2_d_377_8970)">
<rect x="20" y="192" width="335" height="57" rx="28.5" fill="white"/>
<path d="M50.875 212.375C50.9532 212.375 51.0308 212.401 51.0957 212.45L58.9707 218.45C59.0173 218.486 59.0558 218.533 59.083 218.588C59.1102 218.643 59.125 218.705 59.125 218.768V228.482C59.1249 228.59 59.0823 228.691 59.0107 228.764C58.9395 228.836 58.8456 228.875 58.75 228.875H54.25C54.1544 228.875 54.0605 228.836 53.9893 228.764C53.9177 228.691 53.8751 228.59 53.875 228.482V224.054C53.875 223.556 53.6802 223.076 53.3301 222.72C52.9794 222.363 52.5011 222.161 52 222.161H49.75C49.2489 222.161 48.7706 222.363 48.4199 222.72C48.0698 223.076 47.875 223.556 47.875 224.054V228.482C47.8749 228.59 47.8323 228.691 47.7607 228.764C47.6895 228.836 47.5956 228.875 47.5 228.875H43C42.9044 228.875 42.8105 228.836 42.7393 228.764C42.6677 228.691 42.6251 228.59 42.625 228.482V218.768C42.625 218.705 42.6398 218.643 42.667 218.588C42.6942 218.533 42.7327 218.486 42.7793 218.45L50.6543 212.45C50.7192 212.401 50.7968 212.375 50.875 212.375Z" stroke="#6B7684" stroke-width="1.5" stroke-linecap="round" stroke-linejoin="round"/>
<path d="M112.625 228.5L108.575 224.45M108.575 224.45C109.225 223.8 109.741 223.029 110.093 222.179C110.445 221.33 110.626 220.42 110.626 219.5C110.626 218.581 110.445 217.671 110.093 216.821C109.741 215.972 109.225 215.2 108.575 214.55C107.925 213.9 107.154 213.385 106.304 213.033C105.455 212.681 104.545 212.5 103.625 212.5C102.706 212.5 101.796 212.681 100.946 213.033C100.097 213.385 99.3254 213.9 98.6754 214.55C97.3625 215.863 96.625 217.644 96.625 219.5C96.625 221.357 97.3625 223.138 98.6754 224.45C99.9882 225.763 101.769 226.501 103.625 226.501C105.482 226.501 107.263 225.763 108.575 224.45Z" stroke="#6B7684" stroke-width="1.5" stroke-linecap="round" stroke-linejoin="round"/>
<rect x="131.5" y="196" width="112" height="49" rx="24.5" fill="#191F28"/>
<path d="M150.333 224.688C150.333 224.186 150.455 223.725 150.698 223.304C150.942 222.884 151.265 222.563 151.667 222.341C152.528 221.884 153.403 221.541 154.292 221.312C155.181 221.084 156.083 220.969 157 220.969C157.917 220.968 158.82 221.083 159.708 221.312C160.597 221.542 161.472 221.885 162.333 222.341C162.736 222.563 163.059 222.884 163.303 223.304C163.546 223.725 163.667 224.186 163.667 224.688V225.396C163.667 225.883 163.504 226.3 163.178 226.647C162.852 226.994 162.459 227.167 162 227.167H152C151.542 227.167 151.15 226.993 150.823 226.647C150.497 226.3 150.334 225.883 150.333 225.396V224.688ZM164.875 227.167C165.028 226.901 165.143 226.617 165.219 226.315C165.296 226.013 165.334 225.706 165.333 225.396V224.51C165.333 223.861 165.163 223.237 164.823 222.64C164.483 222.042 164.001 221.529 163.375 221.102C164.083 221.19 164.75 221.342 165.375 221.556C166 221.77 166.583 222.032 167.125 222.341C167.625 222.636 168.007 222.964 168.271 223.326C168.535 223.687 168.667 224.082 168.667 224.51V225.396C168.667 225.883 168.504 226.3 168.178 226.647C167.852 226.994 167.459 227.167 167 227.167H164.875ZM157 220.083C156.083 220.083 155.299 219.737 154.646 219.043C153.993 218.349 153.667 217.516 153.667 216.542C153.667 215.568 153.993 214.734 154.646 214.04C155.299 213.347 156.083 213 157 213C157.917 213 158.702 213.347 159.354 214.04C160.007 214.734 160.333 215.568 160.333 216.542C160.333 217.516 160.007 218.349 159.354 219.043C158.702 219.737 157.917 220.083 157 220.083ZM165.333 216.542C165.333 217.516 165.007 218.349 164.354 219.043C163.702 219.737 162.917 220.083 162 220.083C161.847 220.083 161.653 220.065 161.417 220.028C161.181 219.992 160.986 219.951 160.833 219.906C161.208 219.434 161.497 218.91 161.698 218.335C161.9 217.759 162.001 217.161 162 216.542C162 215.922 161.899 215.324 161.698 214.749C161.498 214.173 161.21 213.649 160.833 213.177C161.028 213.103 161.222 213.055 161.417 213.033C161.611 213.01 161.806 212.999 162 213C162.917 213 163.702 213.347 164.354 214.04C165.007 214.734 165.333 215.568 165.333 216.542Z" fill="white"/>
<path d="M182.84 215.149C182.84 216.448 182.674 217.638 182.341 218.718C182.008 219.793 181.432 220.796 180.611 221.726C179.796 222.655 178.691 223.478 177.296 224.193L176.565 223.202C177.8 222.578 178.784 221.874 179.518 221.09C180.256 220.301 180.785 219.436 181.104 218.492C181.423 217.544 181.582 216.482 181.582 215.307V215.149H182.84ZM182.361 216.209H177.248V215.149H182.361V216.209ZM176.824 219.606L176.619 218.499L181.575 218.185V219.169L176.824 219.606ZM186.791 226.155H185.506V213.905H186.791V226.155ZM186.155 219.832H182.806V218.766H186.155V219.832ZM192.199 226.237H190.9V221.247H192.199V226.237ZM196.581 226.237H195.289V221.247H196.581V226.237ZM199.329 221.972H188.118V220.912H199.329V221.972ZM197.914 219.374H189.519V214.548H197.914V219.374ZM190.798 218.335H196.622V215.594H190.798V218.335ZM209.836 226.155H208.551V213.905H209.836V226.155ZM201.701 222.696H200.423V215.102H201.701V222.696ZM201.449 221.931C202.433 221.931 203.415 221.887 204.395 221.801C205.379 221.71 206.364 221.562 207.348 221.356L207.519 222.45C206.489 222.66 205.477 222.812 204.484 222.908C203.495 222.999 202.483 223.045 201.449 223.045H200.423V221.931H201.449ZM212.961 222.211C214.168 222.211 215.208 222.184 216.078 222.129C216.948 222.07 217.842 221.967 218.758 221.821L218.888 222.881C217.985 223.022 217.09 223.12 216.201 223.175C215.312 223.225 214.232 223.255 212.961 223.264H211.956V222.211H212.961ZM218.013 216.065H213.248V222.553H211.956V214.985H218.013V216.065ZM217.548 219.463H212.94V218.424H217.548V219.463ZM221.396 226.155H220.084V213.905H221.396V226.155Z" fill="white"/>
<path d="M278.837 215.645H274.99C274.99 214.309 274.504 211.921 273.639 210.976C272.773 210.031 271.599 209.5 270.375 209.5C269.151 209.5 267.977 210.031 267.111 210.976C266.246 211.921 265.76 214.309 265.76 215.645H261.913C261.505 215.645 261.114 215.822 260.826 216.137C260.537 216.452 260.375 216.88 260.375 217.325V228.82C260.375 229.266 260.537 229.693 260.826 230.008C261.114 230.323 261.505 230.5 261.913 230.5H278.837C279.245 230.5 279.636 230.323 279.924 230.008C280.213 229.693 280.375 229.266 280.375 228.82V217.325C280.375 216.88 280.213 216.452 279.924 216.137C279.636 215.822 279.245 215.645 278.837 215.645ZM270.375 211.18C271.191 211.18 271.974 211.534 272.551 212.164C273.128 212.794 273.452 214.754 273.452 215.645H267.298C267.298 214.754 267.622 212.794 268.199 212.164C268.776 211.534 269.559 211.18 270.375 211.18ZM278.837 228.82H261.913V217.325H265.76V220.125C265.76 220.348 265.841 220.562 265.985 220.719C266.129 220.877 266.325 220.965 266.529 220.965C266.733 220.965 266.929 220.877 267.073 220.719C267.217 220.562 267.298 220.348 267.298 220.125V217.325H273.452V220.125C273.452 220.348 273.533 220.562 273.677 220.719C273.821 220.877 274.017 220.965 274.221 220.965C274.425 220.965 274.621 220.877 274.765 220.719C274.909 220.562 274.99 220.348 274.99 220.125V217.325H278.837V228.82Z" fill="#6B7684"/>
<path d="M320.125 217.5H328.125M320.125 220.5H328.125M320.125 223.5H324.125M333.125 220.5C333.125 222.111 332.693 223.693 331.873 225.08C331.054 226.467 329.877 227.609 328.465 228.386C327.054 229.163 325.46 229.547 323.849 229.497C322.239 229.448 320.671 228.967 319.31 228.105L315.125 229.5L316.52 225.315C315.774 224.136 315.312 222.799 315.171 221.41C315.03 220.021 315.214 218.619 315.709 217.313C316.203 216.008 316.995 214.836 318.02 213.889C319.046 212.942 320.278 212.247 321.618 211.858C322.959 211.47 324.372 211.398 325.745 211.649C327.118 211.9 328.414 212.468 329.53 213.306C330.646 214.144 331.552 215.23 332.176 216.479C332.8 217.728 333.125 219.104 333.125 220.5Z" stroke="#6B7684" stroke-width="1.5" stroke-linecap="round" stroke-linejoin="round"/>
</g>
<g filter="url(#filter3_d_377_8970)">
<rect x="20" y="278" width="335" height="57" rx="28.5" fill="white"/>
<path d="M50.875 298.375C50.9532 298.375 51.0308 298.401 51.0957 298.45L58.9707 304.45C59.0173 304.486 59.0558 304.533 59.083 304.588C59.1102 304.643 59.125 304.705 59.125 304.768V314.482C59.1249 314.59 59.0823 314.691 59.0107 314.764C58.9395 314.836 58.8456 314.875 58.75 314.875H54.25C54.1544 314.875 54.0605 314.836 53.9893 314.764C53.9177 314.691 53.8751 314.59 53.875 314.482V310.054C53.875 309.556 53.6802 309.076 53.3301 308.72C52.9794 308.363 52.5011 308.161 52 308.161H49.75C49.2489 308.161 48.7706 308.363 48.4199 308.72C48.0698 309.076 47.875 309.556 47.875 310.054V314.482C47.8749 314.59 47.8323 314.691 47.7607 314.764C47.6895 314.836 47.5956 314.875 47.5 314.875H43C42.9044 314.875 42.8105 314.836 42.7393 314.764C42.6677 314.691 42.6251 314.59 42.625 314.482V304.768C42.625 304.705 42.6398 304.643 42.667 304.588C42.6942 304.533 42.7327 304.486 42.7793 304.45L50.6543 298.45C50.7192 298.401 50.7968 298.375 50.875 298.375Z" stroke="#6B7684" stroke-width="1.5" stroke-linecap="round" stroke-linejoin="round"/>
<path d="M112.625 314.5L108.575 310.45M108.575 310.45C109.225 309.8 109.741 309.029 110.093 308.179C110.445 307.33 110.626 306.42 110.626 305.5C110.626 304.581 110.445 303.671 110.093 302.821C109.741 301.972 109.225 301.2 108.575 300.55C107.925 299.9 107.154 299.385 106.304 299.033C105.455 298.681 104.545 298.5 103.625 298.5C102.706 298.5 101.796 298.681 100.946 299.033C100.097 299.385 99.3254 299.9 98.6754 300.55C97.3625 301.863 96.625 303.644 96.625 305.5C96.625 307.357 97.3625 309.138 98.6754 310.45C99.9882 311.763 101.769 312.501 103.625 312.501C105.482 312.501 107.263 311.763 108.575 310.45Z" stroke="#6B7684" stroke-width="1.5" stroke-linecap="round" stroke-linejoin="round"/>
<path d="M165.425 314.5H167.375C167.926 314.501 168.397 314.293 168.788 313.876C169.179 313.46 169.375 312.959 169.375 312.375V311.313C169.375 310.798 169.217 310.324 168.9 309.891C168.583 309.457 168.125 309.064 167.525 308.709C166.875 308.338 166.175 308.024 165.425 307.767M161.375 306C162.475 306 163.417 305.584 164.2 304.752C164.983 303.919 165.375 302.919 165.375 301.75C165.375 300.581 164.983 299.581 164.2 298.748C163.417 297.916 162.475 297.5 161.375 297.5C161.142 297.499 160.908 297.512 160.675 297.539C160.442 297.566 160.208 297.624 159.975 297.713M147.375 311.525C147.375 310.923 147.521 310.37 147.813 309.865C148.105 309.361 148.492 308.976 148.975 308.709C150.008 308.16 151.058 307.749 152.125 307.475C153.192 307.201 154.275 307.063 155.375 307.063C156.475 307.062 157.558 307.199 158.625 307.475C159.692 307.75 160.742 308.162 161.775 308.709C162.258 308.975 162.646 309.36 162.938 309.865C163.23 310.37 163.376 310.924 163.375 311.525V312.375C163.375 312.959 163.179 313.46 162.788 313.876C162.397 314.293 161.926 314.501 161.375 314.5H149.375C148.825 314.5 148.354 314.292 147.963 313.876C147.572 313.461 147.376 312.96 147.375 312.375V311.525ZM155.375 306C154.275 306 153.333 305.584 152.55 304.752C151.767 303.919 151.375 302.919 151.375 301.75C151.375 300.581 151.767 299.581 152.55 298.748C153.333 297.916 154.275 297.5 155.375 297.5C156.475 297.5 157.417 297.916 158.2 298.748C158.983 299.581 159.375 300.581 159.375 301.75C159.375 302.919 158.983 303.919 158.2 304.752C157.417 305.584 156.475 306 155.375 306Z" stroke="#6B7684" stroke-width="1.5" stroke-linecap="round"/>
<rect x="185.25" y="282" width="112" height="49" rx="24.5" fill="#191F28"/>
<path fill-rule="evenodd" clip-rule="evenodd" d="M209.031 302.796V302.333C209.031 301.228 209.476 300.169 210.267 299.387C211.058 298.606 212.131 298.167 213.25 298.167C214.369 298.167 215.442 298.606 216.233 299.387C217.024 300.169 217.469 301.228 217.469 302.333V302.796H219.812C220.33 302.796 220.75 303.212 220.75 303.729V312.989C220.75 314.007 219.911 314.833 218.881 314.833H207.619C207.124 314.833 206.649 314.639 206.298 314.293C205.948 313.947 205.75 313.478 205.75 312.989V303.73C205.75 303.213 206.167 302.796 206.688 302.796H209.031ZM210.438 302.796H216.062V302.333C216.062 301.597 215.766 300.89 215.239 300.369C214.711 299.848 213.996 299.556 213.25 299.556C212.504 299.556 211.789 299.848 211.261 300.369C210.734 300.89 210.438 301.597 210.438 302.333V302.796ZM209.031 302.796V305.797C209.031 306.185 209.346 306.5 209.734 306.5C210.123 306.5 210.438 306.185 210.438 305.797V302.796H209.031ZM216.062 302.796V305.797C216.062 306.185 216.377 306.5 216.766 306.5C217.154 306.5 217.469 306.185 217.469 305.797V302.796H216.062Z" fill="white"/>
<path d="M236.556 308.177H235.284V306.03H236.556V308.177ZM241.512 306.639H230.342V305.586H241.512V306.639ZM235.92 307.794C236.804 307.794 237.561 307.878 238.19 308.047C238.823 308.215 239.308 308.464 239.646 308.792C239.983 309.12 240.152 309.517 240.152 309.981C240.152 310.437 239.983 310.825 239.646 311.144C239.308 311.467 238.823 311.713 238.19 311.882C237.561 312.055 236.804 312.142 235.92 312.142C235.036 312.142 234.275 312.055 233.637 311.882C232.999 311.713 232.511 311.467 232.174 311.144C231.837 310.825 231.668 310.437 231.668 309.981C231.668 309.517 231.837 309.12 232.174 308.792C232.511 308.464 232.999 308.215 233.637 308.047C234.275 307.878 235.036 307.794 235.92 307.794ZM235.92 308.792C235.296 308.792 234.765 308.84 234.327 308.936C233.89 309.027 233.557 309.161 233.329 309.339C233.101 309.512 232.987 309.726 232.987 309.981C232.987 310.223 233.101 310.43 233.329 310.604C233.557 310.777 233.89 310.909 234.327 311C234.765 311.096 235.296 311.144 235.92 311.144C236.531 311.144 237.057 311.096 237.499 311C237.941 310.909 238.276 310.777 238.504 310.604C238.732 310.43 238.846 310.223 238.846 309.981C238.846 309.726 238.732 309.512 238.504 309.339C238.276 309.161 237.944 309.027 237.506 308.936C237.073 308.84 236.544 308.792 235.92 308.792ZM236.214 301.313C236.214 301.942 236.004 302.514 235.585 303.029C235.166 303.54 234.589 303.959 233.856 304.287C233.122 304.611 232.295 304.827 231.374 304.937L230.93 303.911C231.7 303.829 232.4 303.665 233.028 303.419C233.662 303.168 234.159 302.858 234.519 302.489C234.879 302.116 235.059 301.724 235.059 301.313V300.958H236.214V301.313ZM236.788 301.313C236.788 301.728 236.966 302.12 237.321 302.489C237.681 302.858 238.178 303.168 238.812 303.419C239.445 303.665 240.154 303.829 240.938 303.911L240.466 304.937C239.559 304.827 238.736 304.611 237.998 304.287C237.264 303.959 236.686 303.54 236.262 303.029C235.838 302.514 235.626 301.942 235.626 301.313V300.958H236.788V301.313ZM240.514 301.505H231.361V300.466H240.514V301.505ZM250.98 302.141H243.057V301.088H250.98V302.141ZM253.051 310.501H241.882V309.435H253.051V310.501ZM247.412 309.988H246.134V305.114H247.412V309.988ZM251.794 302.291C251.794 303.016 251.785 303.624 251.766 304.116C251.748 304.604 251.707 305.183 251.643 305.853C251.579 306.518 251.477 307.238 251.336 308.013L250.016 307.869C250.167 307.135 250.276 306.443 250.344 305.791C250.413 305.139 250.454 304.563 250.467 304.062C250.486 303.556 250.495 302.965 250.495 302.291V301.088H251.794V302.291ZM259.621 309.086H253.893V301.122H259.621V309.086ZM255.157 308.04H258.329V302.147H255.157V308.04ZM262.964 312.155H261.672V299.905H262.964V312.155ZM264.94 305.812H262.67V304.704H264.94V305.812ZM272.063 304.492H269.397V303.433H272.063V304.492ZM275.447 308.19H274.21V299.919H275.447V308.19ZM272.993 307.097H271.756V300.131H272.993V307.097ZM271.749 307.842C271.749 308.553 271.539 309.204 271.12 309.797C270.705 310.389 270.136 310.884 269.411 311.28C268.691 311.681 267.887 311.955 266.998 312.101L266.485 311.096C267.255 310.986 267.955 310.77 268.584 310.446C269.217 310.123 269.719 309.735 270.088 309.284C270.457 308.828 270.641 308.348 270.641 307.842V307.479H271.749V307.842ZM271.927 307.842C271.927 308.343 272.109 308.822 272.473 309.277C272.843 309.733 273.344 310.123 273.977 310.446C274.615 310.77 275.317 310.986 276.083 311.096L275.57 312.101C274.681 311.955 273.875 311.681 273.15 311.28C272.43 310.884 271.861 310.389 271.441 309.797C271.027 309.204 270.819 308.553 270.819 307.842V307.479H271.927V307.842ZM270.409 300.903C270.409 301.951 270.25 302.909 269.931 303.774C269.616 304.636 269.103 305.413 268.392 306.105C267.686 306.794 266.768 307.382 265.638 307.869L265.015 306.933C266.004 306.513 266.804 306.023 267.415 305.463C268.026 304.902 268.47 304.278 268.748 303.59C269.026 302.897 269.165 302.129 269.165 301.286V300.903H270.409ZM269.589 301.963H265.61V300.903H269.589V301.963ZM265.234 304.533L265.043 303.467L269.103 303.234V304.123L265.234 304.533Z" fill="white"/>
<path d="M320.125 303.5H328.125M320.125 306.5H328.125M320.125 309.5H324.125M333.125 306.5C333.125 308.111 332.693 309.693 331.873 311.08C331.054 312.467 329.877 313.609 328.465 314.386C327.054 315.163 325.46 315.547 323.849 315.497C322.239 315.448 320.671 314.967 319.31 314.105L315.125 315.5L316.52 311.315C315.774 310.136 315.312 308.799 315.171 307.41C315.03 306.021 315.214 304.619 315.709 303.313C316.203 302.008 316.995 300.836 318.02 299.889C319.046 298.942 320.278 298.247 321.618 297.858C322.959 297.47 324.372 297.398 325.745 297.649C327.118 297.9 328.414 298.468 329.53 299.306C330.646 300.144 331.552 301.23 332.176 302.479C332.8 303.728 333.125 305.104 333.125 306.5Z" stroke="#6B7684" stroke-width="1.5" stroke-linecap="round" stroke-linejoin="round"/>
</g>
<g filter="url(#filter4_d_377_8970)">
<rect x="20" y="364" width="335" height="57" rx="28.5" fill="white"/>
<path d="M50.875 384.375C50.9532 384.375 51.0308 384.401 51.0957 384.45L58.9707 390.45C59.0173 390.486 59.0558 390.533 59.083 390.588C59.1102 390.643 59.125 390.705 59.125 390.768V400.482C59.1249 400.59 59.0823 400.691 59.0107 400.764C58.9395 400.836 58.8456 400.875 58.75 400.875H54.25C54.1544 400.875 54.0605 400.836 53.9893 400.764C53.9177 400.691 53.8751 400.59 53.875 400.482V396.054C53.875 395.556 53.6802 395.076 53.3301 394.72C52.9794 394.363 52.5011 394.161 52 394.161H49.75C49.2489 394.161 48.7706 394.363 48.4199 394.72C48.0698 395.076 47.875 395.556 47.875 396.054V400.482C47.8749 400.59 47.8323 400.691 47.7607 400.764C47.6895 400.836 47.5956 400.875 47.5 400.875H43C42.9044 400.875 42.8105 400.836 42.7393 400.764C42.6677 400.691 42.6251 400.59 42.625 400.482V390.768C42.625 390.705 42.6398 390.643 42.667 390.588C42.6942 390.533 42.7327 390.486 42.7793 390.45L50.6543 384.45C50.7192 384.401 50.7968 384.375 50.875 384.375Z" stroke="#6B7684" stroke-width="1.5" stroke-linecap="round" stroke-linejoin="round"/>
<path d="M112.625 400.5L108.575 396.45M108.575 396.45C109.225 395.8 109.741 395.029 110.093 394.179C110.445 393.33 110.626 392.42 110.626 391.5C110.626 390.581 110.445 389.671 110.093 388.821C109.741 387.972 109.225 387.2 108.575 386.55C107.925 385.9 107.154 385.385 106.304 385.033C105.455 384.681 104.545 384.5 103.625 384.5C102.706 384.5 101.796 384.681 100.946 385.033C100.097 385.385 99.3254 385.9 98.6754 386.55C97.3625 387.863 96.625 389.644 96.625 391.5C96.625 393.357 97.3625 395.138 98.6754 396.45C99.9882 397.763 101.769 398.501 103.625 398.501C105.482 398.501 107.263 397.763 108.575 396.45Z" stroke="#6B7684" stroke-width="1.5" stroke-linecap="round" stroke-linejoin="round"/>
<path d="M165.425 400.5H167.375C167.926 400.501 168.397 400.293 168.788 399.876C169.179 399.46 169.375 398.959 169.375 398.375V397.313C169.375 396.798 169.217 396.324 168.9 395.891C168.583 395.457 168.125 395.064 167.525 394.709C166.875 394.338 166.175 394.024 165.425 393.767M161.375 392C162.475 392 163.417 391.584 164.2 390.752C164.983 389.919 165.375 388.919 165.375 387.75C165.375 386.581 164.983 385.581 164.2 384.748C163.417 383.916 162.475 383.5 161.375 383.5C161.142 383.499 160.908 383.512 160.675 383.539C160.442 383.566 160.208 383.624 159.975 383.713M147.375 397.525C147.375 396.923 147.521 396.37 147.813 395.865C148.105 395.361 148.492 394.976 148.975 394.709C150.008 394.16 151.058 393.749 152.125 393.475C153.192 393.201 154.275 393.063 155.375 393.063C156.475 393.062 157.558 393.199 158.625 393.475C159.692 393.75 160.742 394.162 161.775 394.709C162.258 394.975 162.646 395.36 162.938 395.865C163.23 396.37 163.376 396.924 163.375 397.525V398.375C163.375 398.959 163.179 399.46 162.788 399.876C162.397 400.293 161.926 400.501 161.375 400.5H149.375C148.825 400.5 148.354 400.292 147.963 399.876C147.572 399.461 147.376 398.96 147.375 398.375V397.525ZM155.375 392C154.275 392 153.333 391.584 152.55 390.752C151.767 389.919 151.375 388.919 151.375 387.75C151.375 386.581 151.767 385.581 152.55 384.748C153.333 383.916 154.275 383.5 155.375 383.5C156.475 383.5 157.417 383.916 158.2 384.748C158.983 385.581 159.375 386.581 159.375 387.75C159.375 388.919 158.983 389.919 158.2 390.752C157.417 391.584 156.475 392 155.375 392Z" stroke="#6B7684" stroke-width="1.5" stroke-linecap="round"/>
<path d="M220.587 387.645H216.74C216.74 386.309 216.254 383.921 215.389 382.976C214.523 382.031 213.349 381.5 212.125 381.5C210.901 381.5 209.727 382.031 208.861 382.976C207.996 383.921 207.51 386.309 207.51 387.645H203.663C203.255 387.645 202.864 387.822 202.576 388.137C202.287 388.452 202.125 388.88 202.125 389.325V400.82C202.125 401.266 202.287 401.693 202.576 402.008C202.864 402.323 203.255 402.5 203.663 402.5H220.587C220.995 402.5 221.386 402.323 221.674 402.008C221.963 401.693 222.125 401.266 222.125 400.82V389.325C222.125 388.88 221.963 388.452 221.674 388.137C221.386 387.822 220.995 387.645 220.587 387.645ZM212.125 383.18C212.941 383.18 213.724 383.534 214.301 384.164C214.878 384.794 215.202 386.754 215.202 387.645H209.048C209.048 386.754 209.372 384.794 209.949 384.164C210.526 383.534 211.309 383.18 212.125 383.18ZM220.587 400.82H203.663V389.325H207.51V392.125C207.51 392.348 207.591 392.562 207.735 392.719C207.879 392.877 208.075 392.965 208.279 392.965C208.483 392.965 208.679 392.877 208.823 392.719C208.967 392.562 209.048 392.348 209.048 392.125V389.325H215.202V392.125C215.202 392.348 215.283 392.562 215.427 392.719C215.571 392.877 215.767 392.965 215.971 392.965C216.175 392.965 216.371 392.877 216.515 392.719C216.659 392.562 216.74 392.348 216.74 392.125V389.325H220.587V400.82Z" fill="#6B7684"/>
<rect x="239" y="368" width="112" height="49" rx="24.5" fill="#191F28"/>
<path d="M264.795 384.898C265.974 384.556 267.218 384.494 268.425 384.715C269.633 384.936 270.773 385.434 271.754 386.172C272.736 386.909 273.534 387.864 274.082 388.963C274.631 390.061 274.917 391.272 274.917 392.5C274.918 393.917 274.537 395.308 273.816 396.528C273.095 397.748 272.059 398.753 270.818 399.436C269.577 400.119 268.174 400.457 266.758 400.414C265.408 400.372 264.093 399.986 262.936 399.294L259.632 400.395C259.483 400.445 259.317 400.406 259.205 400.295C259.094 400.183 259.055 400.018 259.105 399.868L260.207 396.56C259.613 395.566 259.241 394.454 259.124 393.3C259.001 392.079 259.162 390.845 259.597 389.697C260.032 388.549 260.728 387.517 261.63 386.684C262.532 385.852 263.616 385.24 264.795 384.898ZM263.666 394.417C263.344 394.417 263.084 394.678 263.083 395C263.083 395.322 263.344 395.583 263.666 395.583H266.999C267.322 395.583 267.583 395.322 267.583 395C267.583 394.678 267.321 394.417 266.999 394.417H263.666ZM263.666 391.917C263.344 391.917 263.084 392.178 263.083 392.5C263.083 392.822 263.344 393.083 263.666 393.083H270.333C270.655 393.083 270.916 392.822 270.916 392.5C270.916 392.178 270.655 391.917 270.333 391.917H263.666ZM263.666 389.417C263.344 389.417 263.084 389.678 263.083 390C263.083 390.322 263.344 390.583 263.666 390.583H270.333C270.655 390.583 270.916 390.322 270.916 390C270.916 389.678 270.655 389.417 270.333 389.417H263.666Z" fill="white"/>
<path d="M287.53 389.651C287.53 390.485 287.421 391.297 287.202 392.085C286.984 392.873 286.665 393.582 286.245 394.211C285.826 394.835 285.316 395.318 284.714 395.66L283.955 394.703C284.502 394.389 284.969 393.963 285.357 393.425C285.744 392.887 286.036 392.292 286.232 391.641C286.432 390.989 286.532 390.326 286.532 389.651V389.091H287.53V389.651ZM287.756 389.651C287.756 390.303 287.854 390.939 288.05 391.559C288.25 392.174 288.547 392.734 288.939 393.24C289.331 393.746 289.802 394.145 290.354 394.437L289.609 395.4C289.007 395.072 288.492 394.612 288.064 394.02C287.635 393.427 287.312 392.757 287.093 392.01C286.879 391.258 286.772 390.472 286.772 389.651V389.091H287.756V389.651ZM289.991 389.2H284.283V388.134H289.991V389.2ZM287.763 388.934H286.532V386.35H287.763V388.934ZM294.674 398.155H293.423V385.905H294.674V398.155ZM293.881 391.873H291.605V390.786H293.881V391.873ZM291.967 397.554H290.736V386.138H291.967V397.554ZM297.976 391.62C299.211 391.616 300.2 391.593 300.943 391.552C301.686 391.506 302.433 391.424 303.185 391.306L303.315 392.345C302.477 392.481 301.634 392.573 300.786 392.618C299.938 392.659 298.792 392.68 297.347 392.68H296.336V391.62H297.347H297.976ZM302.228 387.847H297.641V392.133H296.336V386.801H302.228V387.847ZM301.88 390.226H297.224V389.187H301.88V390.226ZM305.79 393.452H304.498V385.919H305.79V393.452ZM301.695 393.63C302.547 393.621 303.286 393.705 303.91 393.883C304.534 394.061 305.013 394.318 305.345 394.655C305.683 394.993 305.851 395.4 305.851 395.879C305.851 396.353 305.683 396.758 305.345 397.096C305.013 397.438 304.534 397.697 303.91 397.875C303.29 398.053 302.552 398.142 301.695 398.142C300.829 398.142 300.084 398.053 299.46 397.875C298.835 397.697 298.357 397.438 298.024 397.096C297.691 396.758 297.525 396.353 297.525 395.879C297.525 395.4 297.691 394.993 298.024 394.655C298.357 394.318 298.835 394.061 299.46 393.883C300.084 393.705 300.829 393.621 301.695 393.63ZM301.695 394.642C301.089 394.642 300.569 394.689 300.136 394.785C299.704 394.881 299.375 395.022 299.152 395.209C298.929 395.391 298.817 395.615 298.817 395.879C298.817 396.139 298.929 396.364 299.152 396.556C299.375 396.743 299.704 396.886 300.136 396.986C300.569 397.082 301.089 397.13 301.695 397.13C302.292 397.13 302.805 397.082 303.233 396.986C303.666 396.886 303.996 396.743 304.224 396.556C304.452 396.364 304.566 396.139 304.566 395.879C304.566 395.619 304.452 395.396 304.224 395.209C303.996 395.022 303.666 394.881 303.233 394.785C302.805 394.689 302.292 394.642 301.695 394.642ZM313.228 387.915H307.821V386.835H313.228V387.915ZM310.869 392.666H309.584V389.59H310.869V392.666ZM313.993 387.525C313.984 388.209 313.964 388.811 313.932 389.33C313.9 389.85 313.818 390.451 313.686 391.135L312.394 391.032C312.535 390.33 312.622 389.729 312.654 389.228C312.69 388.722 312.713 388.154 312.722 387.525V386.835H313.993V387.525ZM316.865 395.106H315.538V385.905H316.865V395.106ZM318.553 390.909H316.304V389.815H318.553V390.909ZM317.261 397.916H308.928V396.843H317.261V397.916ZM310.234 397.185H308.928V394.286H310.234V397.185ZM307.069 392.194C308.614 392.19 310.006 392.162 311.245 392.112C312.485 392.062 313.661 391.957 314.773 391.798L314.841 392.748C313.706 392.944 312.499 393.078 311.218 393.151C309.937 393.22 308.595 393.254 307.192 393.254L307.069 392.194ZM328.876 398.189H327.584V385.905H328.876V398.189ZM320.454 394.163C321.589 394.168 322.628 394.138 323.571 394.074C324.519 394.01 325.497 393.899 326.504 393.739L326.634 394.806C325.613 394.974 324.624 395.09 323.667 395.154C322.71 395.214 321.639 395.243 320.454 395.243H319.408V394.163H320.454ZM325.13 391.49H320.734V394.573H319.408V390.451H323.817V388.072H319.388V387.013H325.13V391.49Z" fill="white"/>
</g>
<defs>
<filter id="filter0_d_377_8970" x="4" y="8" width="367" height="89" filterUnits="userSpaceOnUse" color-interpolation-filters="sRGB">
<feFlood flood-opacity="0" result="BackgroundImageFix"/>
<feColorMatrix in="SourceAlpha" type="matrix" values="0 0 0 0 0 0 0 0 0 0 0 0 0 0 0 0 0 0 127 0" result="hardAlpha"/>
<feOffset dy="4"/>
<feGaussianBlur stdDeviation="8"/>
<feColorMatrix type="matrix" values="0 0 0 0 0.208603 0 0 0 0 0.304327 0 0 0 0 0.456731 0 0 0 0.08 0"/>
<feBlend mode="normal" in2="BackgroundImageFix" result="effect1_dropShadow_377_8970"/>
<feBlend mode="normal" in="SourceGraphic" in2="effect1_dropShadow_377_8970" result="shape"/>
</filter>
<filter id="filter1_d_377_8970" x="4" y="94" width="367" height="89" filterUnits="userSpaceOnUse" color-interpolation-filters="sRGB">
<feFlood flood-opacity="0" result="BackgroundImageFix"/>
<feColorMatrix in="SourceAlpha" type="matrix" values="0 0 0 0 0 0 0 0 0 0 0 0 0 0 0 0 0 0 127 0" result="hardAlpha"/>
<feOffset dy="4"/>
<feGaussianBlur stdDeviation="8"/>
<feColorMatrix type="matrix" values="0 0 0 0 0.208603 0 0 0 0 0.304327 0 0 0 0 0.456731 0 0 0 0.08 0"/>
<feBlend mode="normal" in2="BackgroundImageFix" result="effect1_dropShadow_377_8970"/>
<feBlend mode="normal" in="SourceGraphic" in2="effect1_dropShadow_377_8970" result="shape"/>
</filter>
<filter id="filter2_d_377_8970" x="4" y="180" width="367" height="89" filterUnits="userSpaceOnUse" color-interpolation-filters="sRGB">
<feFlood flood-opacity="0" result="BackgroundImageFix"/>
<feColorMatrix in="SourceAlpha" type="matrix" values="0 0 0 0 0 0 0 0 0 0 0 0 0 0 0 0 0 0 127 0" result="hardAlpha"/>
<feOffset dy="4"/>
<feGaussianBlur stdDeviation="8"/>
<feColorMatrix type="matrix" values="0 0 0 0 0.208603 0 0 0 0 0.304327 0 0 0 0 0.456731 0 0 0 0.08 0"/>
<feBlend mode="normal" in2="BackgroundImageFix" result="effect1_dropShadow_377_8970"/>
<feBlend mode="normal" in="SourceGraphic" in2="effect1_dropShadow_377_8970" result="shape"/>
</filter>
<filter id="filter3_d_377_8970" x="4" y="266" width="367" height="89" filterUnits="userSpaceOnUse" color-interpolation-filters="sRGB">
<feFlood flood-opacity="0" result="BackgroundImageFix"/>
<feColorMatrix in="SourceAlpha" type="matrix" values="0 0 0 0 0 0 0 0 0 0 0 0 0 0 0 0 0 0 127 0" result="hardAlpha"/>
<feOffset dy="4"/>
<feGaussianBlur stdDeviation="8"/>
<feColorMatrix type="matrix" values="0 0 0 0 0.208603 0 0 0 0 0.304327 0 0 0 0 0.456731 0 0 0 0.08 0"/>
<feBlend mode="normal" in2="BackgroundImageFix" result="effect1_dropShadow_377_8970"/>
<feBlend mode="normal" in="SourceGraphic" in2="effect1_dropShadow_377_8970" result="shape"/>
</filter>
<filter id="filter4_d_377_8970" x="4" y="352" width="367" height="89" filterUnits="userSpaceOnUse" color-interpolation-filters="sRGB">
<feFlood flood-opacity="0" result="BackgroundImageFix"/>
<feColorMatrix in="SourceAlpha" type="matrix" values="0 0 0 0 0 0 0 0 0 0 0 0 0 0 0 0 0 0 127 0" result="hardAlpha"/>
<feOffset dy="4"/>
<feGaussianBlur stdDeviation="8"/>
<feColorMatrix type="matrix" values="0 0 0 0 0.208603 0 0 0 0 0.304327 0 0 0 0 0.456731 0 0 0 0.08 0"/>
<feBlend mode="normal" in2="BackgroundImageFix" result="effect1_dropShadow_377_8970"/>
<feBlend mode="normal" in="SourceGraphic" in2="effect1_dropShadow_377_8970" result="shape"/>
</filter>
</defs>
</svg>
