<svg width="24" height="24" viewBox="0 0 24 24" fill="none" xmlns="http://www.w3.org/2000/svg">
<path d="M12 3.875C12.0782 3.875 12.1558 3.90073 12.2207 3.9502L20.0957 9.9502C20.1423 9.98572 20.1808 10.0328 20.208 10.0879C20.2352 10.1431 20.25 10.2047 20.25 10.2676V19.9824C20.2499 20.0902 20.2073 20.1909 20.1357 20.2637C20.0645 20.3361 19.9706 20.375 19.875 20.375H15.375C15.2794 20.375 15.1855 20.3361 15.1143 20.2637C15.0427 20.1909 15.0001 20.0902 15 19.9824V15.5537C15 15.0556 14.8052 14.5756 14.4551 14.2197C14.1044 13.8635 13.6261 13.6611 13.125 13.6611H10.875C10.3739 13.6611 9.89561 13.8635 9.54492 14.2197C9.19479 14.5756 9 15.0556 9 15.5537V19.9824C8.99993 20.0902 8.95728 20.1909 8.88574 20.2637C8.81447 20.3361 8.72061 20.375 8.625 20.375H4.125C4.02939 20.375 3.93553 20.3361 3.86426 20.2637C3.79272 20.1909 3.75007 20.0902 3.75 19.9824V10.2676C3.75004 10.2047 3.76481 10.1431 3.79199 10.0879C3.81916 10.0328 3.85772 9.98573 3.9043 9.9502L11.7793 3.9502C11.8442 3.90073 11.9218 3.875 12 3.875Z" stroke="currentColor" stroke-width="1.5" stroke-linecap="round" stroke-linejoin="round"/>
</svg>
