<svg width="24" height="24" viewBox="0 0 24 24" fill="none" xmlns="http://www.w3.org/2000/svg">
<path fill-rule="evenodd" clip-rule="evenodd" d="M10.8388 11.319C11.4154 11.2235 11.9294 10.9086 12.2679 10.4435C12.6064 9.97841 12.7416 9.40128 12.6437 8.83903L11.765 3.79045C11.7165 3.51198 11.6123 3.24555 11.4581 3.00638C11.304 2.76721 11.1031 2.55999 10.8668 2.39655C10.6306 2.23312 10.3636 2.11666 10.0812 2.05385C9.79877 1.99104 9.50642 1.98309 9.22085 2.03046L3.83604 2.9225C3.25945 3.01803 2.74538 3.33296 2.4069 3.79803C2.06842 4.26311 1.93324 4.84024 2.0311 5.40249L2.90975 10.4511C2.95825 10.7295 3.06254 10.996 3.21666 11.2351C3.37078 11.4743 3.5717 11.6815 3.80796 11.845C4.04422 12.0084 4.31119 12.1249 4.59361 12.1877C4.87603 12.2505 5.16838 12.2584 5.45395 12.2111L10.8388 11.319ZM6.24791 7.12119C6.24791 6.83921 6.36279 6.56877 6.56727 6.36938C6.77176 6.16999 7.0491 6.05797 7.33828 6.05797C7.62747 6.05797 7.90481 6.16999 8.10929 6.36938C8.31378 6.56877 8.42865 6.83921 8.42865 7.12119C8.42865 7.40318 8.31378 7.67361 8.10929 7.873C7.90481 8.0724 7.62747 8.18441 7.33828 8.18441C7.0491 8.18441 6.77176 8.0724 6.56727 7.873C6.36279 7.67361 6.24791 7.40318 6.24791 7.12119ZM19.2133 20.8803C18.9329 21.3808 18.4602 21.7522 17.899 21.9129C17.3379 22.0736 16.7343 22.0103 16.2209 21.737L11.4272 19.1839C10.9139 18.9106 10.533 18.4496 10.3682 17.9024C10.2034 17.3553 10.2683 16.7667 10.5485 16.2661L13.0654 11.7724C13.3457 11.2718 13.8184 10.9004 14.3796 10.7397C14.9408 10.5791 15.5444 10.6423 16.0577 10.9156L20.8524 13.4687C21.3655 13.7422 21.7462 14.2032 21.9108 14.7504C22.0754 15.2976 22.0104 15.8861 21.7301 16.3865L19.2133 20.8803ZM15.4993 13.4429C15.2101 13.4429 14.9328 13.5549 14.7283 13.7543C14.5238 13.9537 14.4089 14.2241 14.4089 14.5061C14.4089 14.7881 14.5238 15.0585 14.7283 15.2579C14.9328 15.4573 15.2101 15.5693 15.4993 15.5693C15.7885 15.5693 16.0658 15.4573 16.2703 15.2579C16.4748 15.0585 16.5897 14.7881 16.5897 14.5061C16.5897 14.2241 16.4748 13.9537 16.2703 13.7543C16.0658 13.5549 15.7885 13.4429 15.4993 13.4429ZM15.6493 17.9762C15.6493 17.6942 15.7642 17.4238 15.9686 17.2244C16.1731 17.025 16.4505 16.913 16.7396 16.913C17.0288 16.913 17.3062 17.025 17.5107 17.2244C17.7151 17.4238 17.83 17.6942 17.83 17.9762C17.83 18.2582 17.7151 18.5286 17.5107 18.728C17.3062 18.9274 17.0288 19.0394 16.7396 19.0394C16.4505 19.0394 16.1731 18.9274 15.9686 18.728C15.7642 18.5286 15.6493 18.2582 15.6493 17.9762Z" fill="white"/>
</svg>
