<svg width="24" height="24" viewBox="0 0 24 24" fill="none" xmlns="http://www.w3.org/2000/svg">
<path d="M15.3161 3.38173C14.4741 2.49069 13.298 2 12 2C10.695 2 9.51512 2.48772 8.67701 3.37325C7.82983 4.26854 7.41705 5.48529 7.51397 6.79917C7.70608 9.3913 9.71848 11.4999 12 11.4999C14.2815 11.4999 16.2905 9.39172 16.4856 6.80002C16.5838 5.49801 16.1684 4.2838 15.3161 3.38173ZM19.6152 20.9999H4.38482C4.18547 21.0024 3.98805 20.9614 3.80692 20.8797C3.62579 20.7981 3.46551 20.6779 3.33774 20.5279C3.0565 20.1983 2.94313 19.7484 3.02707 19.2933C3.39226 17.3076 4.53194 15.6396 6.32323 14.4687C7.91463 13.4292 9.93049 12.8571 12 12.8571C14.0695 12.8571 16.0854 13.4296 17.6768 14.4687C19.4681 15.6392 20.6077 17.3072 20.9729 19.2929C21.0569 19.7479 20.9435 20.1979 20.6623 20.5274C20.5345 20.6775 20.3743 20.7978 20.1931 20.8795C20.012 20.9613 19.8146 21.0024 19.6152 20.9999Z" fill="white"/>
</svg>
